<?xml version="1.0" encoding="utf-8"?>
<!-- Generator: Adobe Illustrator 25.4.1, SVG Export Plug-In . SVG Version: 6.00 Build 0)  -->
<svg version="1.1" id="Capa_1" xmlns="http://www.w3.org/2000/svg" xmlns:xlink="http://www.w3.org/1999/xlink" x="0px" y="0px"
	width="24" height="22" viewBox="0 0 34 36" style="enable-background:new 0 0 34 34;" xml:space="preserve">
<style type="text/css">
	.st0{fill:none;stroke:#000000;stroke-width:3;stroke-linejoin:round;stroke-miterlimit:10;}
</style>
<path class="st0" d="M33.2,9.3L33.2,9.3c0-0.1,0-0.2,0-0.4c0.1-4.2-3.5-7.8-8.1-7.9c-3.5-0.1-6.6,1.8-7.9,4.6
	c-1.3-2.8-4.4-4.7-7.9-4.6C4.7,1,1,4.5,1.1,8.8c0,0.1,0,0.3,0,0.4l0,0c0,0-0.9,5.7,15.9,23.5c0,0,0,0,0,0c0,0,0,0,0,0c0,0,0,0,0,0
	c0,0,0,0,0,0C34.1,15,33.2,9.3,33.2,9.3z"/>
</svg>
